HIERARCHY
ROOT Hips
{
	OFFSET 0.000000 0.000000 0.000000 
	CHANNELS 6 Xposition Yposition Zposition Zrotation Yrotation Xrotation
	JOINT LeftUpLeg
	{
		OFFSET 1.363060 -1.794630 0.839290 
		CHANNELS 3 Zrotation Yrotation Xrotation
		JOINT LeftLeg
		{
			OFFSET 2.448110 -6.726130 0.000000 
			CHANNELS 3 Zrotation Yrotation Xrotation
			JOINT LeftFoot
			{
				OFFSET 2.562200 -7.039590 0.000000 
				CHANNELS 3 Zrotation Yrotation Xrotation
				JOINT LeftToeBase
				{
					OFFSET 0.157640 -0.433110 2.322550 
					CHANNELS 3 Zrotation Yrotation Xrotation
					End Site
					{
						OFFSET 0.000000 0.000000 0.000000 
					}
				}
			}
		}
	}
	JOINT RightUpLeg
	{
		OFFSET -1.305520 -1.794630 0.839290 
		CHANNELS 3 Zrotation Yrotation Xrotation
		JOINT RightLeg
		{
			OFFSET -2.542530 -6.985550 0.000000 
			CHANNELS 3 Zrotation Yrotation Xrotation
			JOINT RightFoot
			{
				OFFSET -2.568260 -7.056230 0.000000 
				CHANNELS 3 Zrotation Yrotation Xrotation
				JOINT RightToeBase
				{
					OFFSET -0.164730 -0.452590 2.363150 
					CHANNELS 3 Zrotation Yrotation Xrotation
					End Site
					{
						OFFSET 0.000000 0.000000 0.000000 
					}
				}
			}
		}
	}
	JOINT Spine
	{
		OFFSET 0.028270 2.035590 -0.193380 
		CHANNELS 3 Zrotation Yrotation Xrotation
		JOINT Spine1
		{
			OFFSET 0.056720 2.048850 -0.042750 
			CHANNELS 3 Zrotation Yrotation Xrotation
			JOINT Neck1
			{
				OFFSET -0.054170 1.746240 0.172020 
				CHANNELS 3 Zrotation Yrotation Xrotation
				JOINT Head
				{
					OFFSET 0.104070 1.761360 -0.123970 
					CHANNELS 3 Zrotation Yrotation Xrotation
					End Site
					{
						OFFSET 0.000000 0.000000 0.000000 
					}
				}
			}
			JOINT LeftArm
			{
				OFFSET 3.362410 1.200890 -0.311210 
				CHANNELS 3 Zrotation Yrotation Xrotation
				JOINT LeftForeArm
				{
					OFFSET 4.983000 -0.000000 -0.000000 
					CHANNELS 3 Zrotation Yrotation Xrotation
					JOINT LeftHand
					{
						OFFSET 3.483560 -0.000000 -0.000000 
						CHANNELS 3 Zrotation Yrotation Xrotation
						JOINT LeftHandIndex1
						{
							OFFSET 0.715260 -0.000000 -0.000000 
							CHANNELS 3 Zrotation Yrotation Xrotation
							End Site
							{
								OFFSET 0.000000 0.000000 0.000000 
							}
						}
					}
				}
			}
			JOINT RightArm
			{
				OFFSET -3.136600 1.374050 -0.404650 
				CHANNELS 3 Zrotation Yrotation Xrotation
				JOINT RightForeArm
				{
					OFFSET -5.241900 -0.000000 -0.000000 
					CHANNELS 3 Zrotation Yrotation Xrotation
					JOINT RightHand
					{
						OFFSET -3.444170 -0.000000 -0.000000 
						CHANNELS 3 Zrotation Yrotation Xrotation
						JOINT RightHandIndex1
						{
							OFFSET -0.622530 -0.000000 -0.000000 
							CHANNELS 3 Zrotation Yrotation Xrotation
							End Site
							{
								OFFSET 0.000000 0.000000 0.000000 
							}
						}
					}
				}
			}
		}
	}
}
MOTION
Frames: 9
Frame Time: 0.041667
19.090330 16.813053 45.944279 179.121803 -18.513209 -151.429344 -5.165651 -2.246493 -17.454973 8.537154 16.481284 51.678595 1.258733 6.838831 38.879160 0.236600 -3.130700 -8.642700 13.540063 -2.703577 -56.320706 -8.724579 -18.561687 53.762754 4.803283 -13.274066 2.236868 -2.282600 9.431400 -27.154300 0.986852 -2.582308 -4.158028 4.046651 -1.817605 -10.331998 2.307277 1.206660 -8.999161 -0.161900 -0.821300 -1.277600 -83.941049 -3.679019 42.969933 102.096494 -57.037789 -77.848543 -0.895061 -0.275657 -5.645438 -7.125000 0.000000 0.000000 85.810542 -27.298448 19.193158 -36.299057 43.369239 -22.561567 2.854686 2.189909 -10.376645 7.125000 0.000000 0.000000 
18.999476 16.821099 45.541078 179.122974 -18.315259 -151.733433 -5.666757 -2.083694 -19.631719 10.296196 17.339350 56.178084 0.578113 7.582685 36.905666 0.242800 -3.170900 -8.754900 13.523818 -2.621923 -54.886887 -8.821736 -18.465575 54.174117 4.963557 -13.551997 0.678155 -2.597900 10.013700 -29.021200 0.982494 -2.379001 -4.117595 3.910329 -1.727432 -10.463704 2.145720 1.093792 -9.179014 -0.250000 -0.920800 -1.362900 -84.999318 -3.439466 42.145766 89.966997 -57.109203 -68.228747 -1.078658 -0.394519 -6.480513 -7.125000 0.000000 0.000000 85.901062 -23.800493 18.604989 -33.958852 41.678840 -20.317980 3.324355 1.790625 -12.579386 7.125000 0.000000 0.000000 
18.915997 16.780086 45.159558 179.043671 -18.017024 -151.978703 -6.208607 -1.993718 -22.048512 12.068493 18.075855 60.833317 -0.661717 9.046511 32.399019 0.947600 -6.199600 -17.364500 13.566958 -2.554751 -53.468771 -9.002088 -18.379751 54.639580 5.745043 -15.071637 -0.878058 -3.294300 11.156800 -32.810700 0.967573 -2.128736 -4.080601 3.716582 -1.602391 -10.638999 1.969226 0.969135 -9.363651 -0.352100 -1.017700 -1.521100 -85.799560 -3.177530 41.638413 77.758180 -55.568892 -57.622982 -1.233569 -0.394335 -8.093727 -7.125000 0.000000 0.000000 85.949680 -20.334295 18.116114 -32.875975 40.648389 -19.264095 3.499577 1.866576 -14.644708 7.125000 0.000000 0.000000 
18.823579 16.763658 44.756581 179.047074 -17.661806 -152.276241 -6.561919 -1.975502 -24.450426 13.624935 18.650333 65.101239 -1.591852 10.081324 28.759795 1.066100 -6.564100 -18.430400 13.476143 -2.405059 -52.074207 -9.105761 -18.302107 55.123488 5.720202 -15.035729 -2.188288 -3.456000 11.399000 -33.637500 0.942507 -1.816350 -4.014190 3.397333 -1.464437 -10.567050 1.802023 0.792437 -9.496391 -0.447800 -1.141300 -1.638000 -86.326273 -3.152882 40.670454 66.252357 -53.149733 -46.958744 -1.311294 -0.305005 -10.029575 -7.125000 0.000000 0.000000 85.826823 -16.724858 17.707213 -32.056995 39.766309 -18.491041 3.482211 2.102846 -15.265555 7.125000 0.000000 0.000000 
18.722332 16.761982 44.326449 179.205825 -17.067197 -152.754552 -6.756833 -1.722606 -27.079122 14.868380 19.084014 68.795638 -2.198749 10.443399 25.388295 0.985500 -6.318800 -17.712100 13.493513 -2.345158 -50.525548 -9.181919 -18.196907 55.578907 5.436066 -14.513354 -3.214753 -3.597200 11.604200 -34.345900 0.909573 -1.328391 -3.981749 2.999230 -1.234656 -10.626620 1.625088 0.641135 -9.468366 -0.540000 -1.219000 -1.657200 -86.258422 -2.770080 39.619493 55.721003 -50.271086 -37.111338 -1.504470 -0.118517 -12.807601 -7.125000 0.000000 0.000000 86.026376 -13.868570 17.681009 -32.948689 40.041209 -19.128431 3.404519 1.925494 -12.728610 7.125000 0.000000 0.000000 
18.627343 16.717952 43.922019 179.328174 -16.587692 -153.161567 -6.887919 -1.570116 -29.751856 16.134729 19.462692 72.490393 -2.832033 11.128963 22.284924 1.094300 -6.647700 -18.675800 13.559891 -2.255597 -49.126004 -9.305176 -18.115550 56.116939 5.442914 -14.585246 -4.396616 -3.877300 11.995300 -35.715300 0.887098 -0.912506 -3.940583 2.616583 -1.047603 -10.633289 1.446597 0.497372 -9.496660 -0.631500 -1.303900 -1.707600 -86.270722 -2.405555 37.806552 46.979156 -47.160040 -29.325700 -1.673640 0.020066 -14.072946 -7.125000 0.000000 0.000000 86.021779 -10.889666 17.749305 -33.355800 39.999076 -19.368825 3.396163 1.850919 -12.330954 7.125000 0.000000 0.000000 
18.529448 16.675039 43.511443 179.514693 -16.025329 -153.620061 -6.916438 -1.334132 -32.497507 17.221420 19.764471 75.807640 -3.294303 11.535447 19.358246 1.149900 -6.808700 -19.150000 13.667503 -2.188124 -47.665610 -9.409642 -18.023753 56.624208 5.358657 -14.498769 -5.477852 -4.129900 12.331300 -36.914200 0.862002 -0.452271 -3.901777 2.175749 -0.843015 -10.617035 1.272535 0.366073 -9.479327 -0.716800 -1.374600 -1.731000 -85.987379 -1.795452 35.862328 39.612354 -43.840996 -23.151488 -1.870251 0.145074 -14.690968 -7.125000 0.000000 0.000000 86.050400 -8.115154 18.122581 -34.402799 40.374100 -20.156996 3.325920 1.773217 -11.741371 7.125000 0.000000 0.000000 
18.428760 16.616258 43.100196 179.773884 -15.371003 -154.144981 -6.859842 -1.025545 -35.336970 18.168051 20.014454 78.856258 -3.543302 11.553389 16.611676 1.122400 -6.729700 -18.917000 13.817001 -2.111689 -46.210881 -9.527140 -17.942967 57.194149 5.161996 -14.215229 -6.485363 -4.353200 12.616100 -37.948100 0.832618 0.043449 -3.865798 1.680537 -0.624397 -10.582089 1.107800 0.256479 -9.418690 -0.791900 -1.426600 -1.724700 -85.405284 -0.809485 33.973546 33.625421 -40.574611 -18.470200 -2.061005 0.276121 -14.469523 -7.125000 0.000000 0.000000 86.122955 -5.563604 18.863878 -36.082888 41.134889 -21.499209 3.211680 1.674250 -11.158967 7.125000 0.000000 0.000000 
18.324272 16.550324 42.684815 -179.915722 -14.616908 -154.721568 -6.739425 -0.640321 -38.222506 18.939154 20.221830 81.475224 -3.580091 11.185946 14.063251 1.062800 -6.554400 -18.401700 13.984305 -2.057347 -44.701255 -9.634383 -17.857914 57.732902 4.910373 -13.837132 -7.385708 -4.576800 12.890700 -38.960700 0.795431 0.560930 -3.833642 1.134953 -0.395246 -10.530452 0.955099 0.174414 -9.318063 -0.854800 -1.456800 -1.688000 -84.528900 0.663701 32.338568 28.927993 -37.646743 -15.059664 -2.223616 0.420233 -13.408758 -7.125000 0.000000 0.000000 86.248690 -3.241723 20.012346 -38.436181 42.253685 -23.453937 3.065606 1.567055 -10.732676 7.125000 0.000000 0.000000 
